<svg width="893" height="366" viewBox="0 0 893 366" fill="none" xmlns="http://www.w3.org/2000/svg">
<path d="M181.845 97.3111H16.5432C7.95713 97.3111 1 90.3588 1 81.7787V61.5324C1 52.9523 7.95713 46 16.5432 46H181.845C190.431 46 197.388 52.9523 197.388 61.5324V81.7787C197.388 90.3588 190.431 97.3111 181.845 97.3111Z" fill="white" stroke="#3B3F51" stroke-width="2" stroke-miterlimit="10" stroke-linejoin="bevel"/>
<path d="M37.3057 89.9579C47.7943 89.9579 56.297 81.4612 56.297 70.9799C56.297 60.4987 47.7943 52.002 37.3057 52.002C26.8171 52.002 18.3145 60.4987 18.3145 70.9799C18.3145 81.4612 26.8171 89.9579 37.3057 89.9579Z" fill="#24BB72"/>
<path d="M33.9131 90.6356C44.4017 90.6356 52.9044 82.1389 52.9044 71.6577C52.9044 61.1764 44.4017 52.6797 33.9131 52.6797C23.4246 52.6797 14.9219 61.1764 14.9219 71.6577C14.9219 82.1389 23.4246 90.6356 33.9131 90.6356Z" stroke="#3B3F51" stroke-width="2" stroke-miterlimit="10" stroke-linejoin="bevel"/>
<path d="M33.9125 84.4496C40.9823 84.4496 46.7136 78.7223 46.7136 71.6574C46.7136 64.5925 40.9823 58.8652 33.9125 58.8652C26.8426 58.8652 21.1113 64.5925 21.1113 71.6574C21.1113 78.7223 26.8426 84.4496 33.9125 84.4496Z" stroke="#3B3F51" stroke-width="2" stroke-miterlimit="10" stroke-linejoin="bevel"/>
<path d="M172.065 60.6855H69.459C67.8021 60.6855 66.459 62.0287 66.459 63.6855V67.6968C66.459 69.3537 67.8021 70.6968 69.459 70.6968H172.065C173.722 70.6968 175.065 69.3537 175.065 67.6968V63.6855C175.065 62.0287 173.722 60.6855 172.065 60.6855Z" fill="#3B3F51"/>
<path d="M134.573 77.9453H68.9618C67.5795 77.9453 66.459 79.0659 66.459 80.4481C66.459 81.8304 67.5795 82.9509 68.9618 82.9509H134.573C135.955 82.9509 137.076 81.8304 137.076 80.4481C137.076 79.0659 135.955 77.9453 134.573 77.9453Z" fill="#3B3F51"/>
<path d="M75 35H16C15.4477 35 15 35.4477 15 36C15 36.5523 15.4477 37 16 37H75C75.5523 37 76 36.5523 76 36C76 35.4477 75.5523 35 75 35Z" fill="#3B3F51"/>
<path d="M140 105H81C80.4477 105 80 105.448 80 106C80 106.552 80.4477 107 81 107H140C140.552 107 141 106.552 141 106C141 105.448 140.552 105 140 105Z" fill="#3B3F51"/>
<rect x="125" y="97" width="77" height="40" fill="white"/>
<path d="M883.057 320.861H787.943C783.003 320.861 779 315.867 779 309.703V295.158C779 288.994 783.003 284 787.943 284H883.057C887.997 284 892 288.994 892 295.158V309.703C892 315.867 887.997 320.861 883.057 320.861Z" fill="white" stroke="#3B3F51" stroke-width="2" stroke-miterlimit="10" stroke-linejoin="bevel"/>
<path d="M873.135 294.592H800.809C799.152 294.592 797.809 295.935 797.809 297.592V298.812C797.809 300.469 799.152 301.812 800.809 301.812H873.135C874.792 301.812 876.135 300.469 876.135 298.812V297.592C876.135 295.935 874.792 294.592 873.135 294.592Z" fill="#3B3F51"/>
<path d="M846.932 307.039H799.614C798.617 307.039 797.809 307.847 797.809 308.844C797.809 309.841 798.617 310.649 799.614 310.649H846.932C847.929 310.649 848.737 309.841 848.737 308.844C848.737 307.847 847.929 307.039 846.932 307.039Z" fill="#3B3F51"/>
<path d="M822 274H763C762.448 274 762 274.448 762 275C762 275.552 762.448 276 763 276H822C822.552 276 823 275.552 823 275C823 274.448 822.552 274 822 274Z" fill="#3B3F51"/>
<path d="M891 329H858C857.448 329 857 329.448 857 330C857 330.552 857.448 331 858 331H891C891.552 331 892 330.552 892 330C892 329.448 891.552 329 891 329Z" fill="#3B3F51"/>
<g clip-path="url(#clip0)">
<path d="M193.93 361.359C185.453 361.371 178.328 358.42 172.556 352.499C166.778 346.584 163.892 339.214 163.874 330.402L163.476 91.4902L174.156 94.0132L76.2242 215.663L73.6702 209.06L246.054 208.776C254.192 208.764 260.973 211.468 266.407 216.876C271.835 222.29 274.564 229.062 274.576 237.199C274.588 244.997 271.883 251.521 266.473 256.784C261.057 262.054 254.283 264.685 246.144 264.697L31.557 265.053C24.4385 265.065 17.5676 262.204 10.9502 256.446C4.33287 250.688 1.01212 243.578 1.00004 235.104C0.987968 227.656 3.51778 220.866 8.59551 214.758L168.952 17.7639C171.657 14.0338 175.207 11.0643 179.614 8.84916C184.01 6.64008 188.931 5.52951 194.359 5.52347C203.168 5.5114 210.383 8.46891 215.986 14.3839C221.589 20.305 224.396 27.6746 224.414 36.4807L224.903 330.293C224.916 339.112 221.957 346.487 216.04 352.42C210.111 358.366 202.745 361.341 193.93 361.359Z" fill="#24BB72"/>
<path d="M423.653 366C394.497 366.049 369.821 358.383 349.624 342.992C329.428 327.607 314.05 306.12 303.502 278.512C292.942 250.911 287.641 219.151 287.581 183.227C287.52 146.97 292.719 115.101 303.188 87.6328C313.646 60.1643 328.951 38.7133 349.099 23.2498C369.235 7.80441 393.887 0.0485123 423.049 0.000226517C452.199 -0.0480592 476.876 7.62334 497.072 23.0084C517.262 38.3995 532.64 59.8021 543.2 87.2345C553.748 114.667 559.061 146.517 559.122 182.774C559.182 218.698 553.971 250.477 543.514 278.114C533.051 305.758 517.739 327.299 497.603 342.751C477.455 358.202 452.809 365.952 423.653 366ZM423.556 304.997C437.793 304.973 450.068 300.464 460.399 291.465C470.717 282.472 478.747 268.904 484.483 250.76C490.213 232.623 493.063 210.001 493.015 182.883C492.966 155.432 490.044 132.738 484.26 114.782C478.464 96.8313 470.391 83.3777 460.036 74.4086C449.676 65.4516 437.383 60.9731 423.146 60.9972C409.241 61.0213 397.045 65.5361 386.557 74.5293C376.064 83.5285 367.949 97.0124 362.219 114.981C356.483 132.955 353.639 155.661 353.688 183.112C353.73 210.23 356.646 232.846 362.442 250.959C368.233 269.085 376.39 282.629 386.919 291.586C397.437 300.555 409.652 305.021 423.556 304.997Z" fill="#24BB72"/>
<path d="M776.354 360.279C767.877 360.291 760.752 357.339 754.98 351.418C749.202 345.503 746.316 338.14 746.298 329.322L745.9 90.4096L756.58 92.9325L658.642 214.589L656.088 207.985L828.472 207.702C836.61 207.69 843.391 210.394 848.825 215.802C854.253 221.216 856.982 227.988 856.994 236.124C857.006 243.922 854.301 250.447 848.891 255.71C843.475 260.979 836.701 263.611 828.562 263.623L613.975 263.979C606.856 263.991 599.986 261.124 593.368 255.372C586.751 249.626 583.43 242.516 583.418 234.036C583.406 226.588 585.936 219.797 591.013 213.689L751.37 16.7014C754.075 12.9713 757.625 10.0018 762.032 7.78666C766.428 5.57758 771.349 4.46701 776.777 4.46097C785.586 4.4489 792.801 7.4064 798.404 13.3214C804.007 19.2485 806.814 26.6121 806.832 35.4182L807.321 329.231C807.333 338.049 804.375 345.425 798.458 351.358C792.535 357.291 785.169 360.267 776.354 360.279Z" fill="#24BB72"/>
<path d="M378.275 190.238L374.308 227.177C374.308 227.177 366.574 215.486 361.339 220.7C356.352 225.662 347.543 261.906 347.543 261.906C347.543 261.906 347.422 273.724 353.714 276.845C373.85 286.84 396.28 267.996 396.28 267.996L393.098 162.365C384.754 169.403 379.44 179.386 378.275 190.238Z" fill="white" stroke="#3B3F51" stroke-width="2" stroke-miterlimit="10" stroke-linejoin="bevel"/>
<path d="M383.594 190.238L379.627 227.177C379.627 227.177 371.892 215.486 366.658 220.7C361.671 225.662 352.861 261.906 352.861 261.906C352.861 261.906 352.741 273.724 359.032 276.845C379.168 286.84 401.598 267.996 401.598 267.996L398.416 162.365C390.072 169.403 384.759 179.386 383.594 190.238Z" fill="#24BB72"/>
<path d="M378.275 190.238L374.308 227.177C374.308 227.177 366.574 215.486 361.339 220.7C356.352 225.662 347.543 261.906 347.543 261.906C347.543 261.906 347.422 273.724 353.714 276.845C373.85 286.84 396.28 267.996 396.28 267.996L393.098 162.365C384.754 169.403 379.44 179.386 378.275 190.238Z" stroke="#3B3F51" stroke-width="1.1037" stroke-miterlimit="10" stroke-linejoin="bevel"/>
<path d="M450.862 100.283L451.925 85.4532L449.776 83.7994C435.291 72.6514 413.078 69.8629 396.281 77.0756C396.281 77.0756 398.521 109.711 401.6 125.048C404.456 139.268 416.29 141.803 416.29 141.803C416.29 141.803 414.727 158.298 414.944 162.366L446.262 164.594L449.818 114.829C451.363 115.324 459.496 116.41 459.78 107.435C460.058 99.0637 453.157 99.788 450.862 100.283Z" fill="white" stroke="#3B3F51" stroke-width="2" stroke-miterlimit="10" stroke-linejoin="bevel"/>
<path d="M392.042 68.2754C391.885 66.4767 392.555 64.5453 394.022 63.4891C395.483 62.4328 397.754 62.4992 398.943 63.8572C398.261 61.4369 400.241 58.6424 402.753 58.4855C405.12 58.3346 407.136 60.1211 409.425 60.7488C411.659 61.3585 414.049 60.8333 416.199 59.9702C418.348 59.1071 420.353 57.9121 422.526 57.1214C427.061 55.4676 432.247 55.6728 436.631 57.6887C441.02 59.7047 444.552 63.4951 446.255 68.0098C449.425 67.02 453.035 68.6315 454.991 71.3174C456.948 74.0033 457.449 77.5342 457.062 80.8357C456.797 83.0689 456.157 85.2237 455.402 87.3422C455.402 87.5293 455.42 87.7104 455.42 87.8975C455.269 95.8707 454.369 105.238 450.964 105.292C445.035 105.383 446.448 94.2109 446.448 94.2109C439.166 91.3982 441.877 80.4977 440.06 78.8439C438.243 77.1901 434.433 73.3454 419.188 81.1315C413.271 84.1554 405.397 84.0588 401.105 83.087C400.978 83.0569 400.851 83.0388 400.724 83.0086C400.7 83.0025 400.664 82.9965 400.634 82.9905C400.585 82.9784 400.555 82.9543 400.507 82.9422C399.136 82.5861 397.814 82.0549 396.6 81.2824C395.218 80.4072 393.962 79.2242 393.376 77.7032C392.791 76.1761 393.008 74.2749 394.209 73.1643C393.08 71.7399 392.199 70.068 392.042 68.2754Z" fill="#3B3F51"/>
<path d="M474.789 255.6L475.888 276.182L477.923 300.723L385.129 305.745L389.174 262.064L381.234 193.058C381.923 168.674 391.293 158.534 410.457 156.204C410.614 156.186 408.785 156.415 408.948 156.391C411.586 156.077 408.948 156.391 410.457 156.204C422.852 160.018 435.248 160.012 447.643 156.18C453.391 156.421 458.149 158.19 463.04 159.131C478.436 162.083 491.109 173.973 494.188 184.324C496.724 192.847 515.055 266.754 515.055 266.754H478.587L474.789 255.6Z" fill="white" stroke="#3B3F51" stroke-width="1.1037" stroke-miterlimit="10" stroke-linejoin="bevel"/>
<path d="M480.465 255.6L481.564 276.182L484.015 305.745H390.804L394.85 262.064L386.91 193.058C385.497 176.212 388.51 166.875 410.457 156.204C410.602 156.131 410.294 156.222 410.457 156.204C413.096 155.89 414.623 156.391 416.133 156.204C428.528 160.018 435.248 160.012 447.644 156.18H453.319C459.067 156.421 463.825 158.19 468.715 159.131C484.112 162.083 496.785 173.973 499.864 184.324C502.4 192.847 520.73 266.754 520.73 266.754H484.263L480.465 255.6Z" fill="#24BB72"/>
<path d="M474.789 255.6L475.888 276.182L478.152 292.979L385.129 305.745L389.174 262.064L381.234 193.058C381.923 168.674 391.293 158.534 410.457 156.204C410.614 156.186 408.785 156.415 408.948 156.391C411.586 156.077 408.948 156.391 410.457 156.204C422.852 160.018 435.248 160.012 447.643 156.18C453.391 156.421 458.149 158.19 463.04 159.131C478.436 162.083 491.109 173.973 494.188 184.324C496.724 192.847 515.055 266.754 515.055 266.754H478.587L474.789 255.6Z" stroke="#3B3F51" stroke-width="2" stroke-miterlimit="10" stroke-linejoin="bevel"/>
<path d="M394.848 262.064L378.16 310.869L418.842 309.463C418.842 309.463 425.236 306.487 426.402 304.194C427.567 301.9 396.611 298.23 396.611 298.23L394.848 262.064Z" fill="#24BB72"/>
<path d="M381.082 251.483L359.129 184.106L357.143 172.795C357.143 172.795 351.171 147.578 350.906 145.079C350.598 142.194 349.137 141.651 348.08 141.838C346.438 142.128 345.478 144.294 345.665 146.775C345.731 147.632 347.295 161.134 347.295 161.134C347.295 161.134 346.558 160.084 344.282 157.766C342.012 155.454 337.164 154.513 332.364 155.189C327.564 155.865 326.278 156.474 326.453 158.352C326.525 159.106 327.008 159.661 327.594 160.066C328.548 160.724 329.737 160.965 330.891 160.82C338.595 159.848 341.112 163.747 341.112 163.747L341.372 165.226C341.372 165.226 336.318 162.383 332.738 164.2C332.152 164.496 331.706 164.87 331.349 165.281C329.303 165.522 327.413 166.856 326.531 168.727C325.62 170.67 325.837 173.097 327.087 174.847C327.685 175.68 328.699 176.41 329.677 176.097C330.196 175.934 330.583 175.517 330.951 175.119C331.144 174.914 331.355 174.708 331.585 174.539L332.895 178.583C332.895 178.583 336.318 187.51 337.375 191.566L348.062 259.414C349.541 268.817 358.453 275.185 367.835 273.537C378.039 271.739 384.294 261.333 381.082 251.483Z" fill="white" stroke="#3B3F51" stroke-width="2" stroke-miterlimit="10" stroke-linejoin="bevel"/>
<path d="M514.595 275.144L513.629 266.754H480.609L481.599 272.21L421.433 281.179C419.972 280.539 418.197 279.737 416.512 278.958C412.582 277.141 408.271 276.302 403.948 276.526L386.891 277.395C386.891 277.395 387.942 280.208 389.753 281.209C391.564 282.211 402.167 282.423 402.167 282.423L401.623 282.984C399.389 285.284 396.34 286.617 393.134 286.696L391.504 286.738C390.296 286.642 389.101 286.412 387.942 286.044L383.733 284.342C382.459 283.769 381.113 283.859 380.564 285.145C380.062 286.304 380.431 287.903 383.902 289.647C385.847 290.625 393.044 293.112 393.044 293.112C393.044 293.112 393.146 295.104 393.46 296.148C393.774 297.198 396.606 298.242 396.606 298.242C396.606 298.242 398.387 301.906 399.118 302.745C399.444 303.119 402.01 303.916 404.733 304.682C409.134 305.92 413.795 305.89 418.173 304.58L418.366 304.519L489.919 305.316C505.762 305.153 517.584 290.692 514.595 275.144Z" fill="white" stroke="#3B3F51" stroke-width="2" stroke-miterlimit="10" stroke-linejoin="bevel"/>
<path d="M376.421 105.77C378.794 99.7278 379.374 92.9195 377.659 86.1535C373.3 68.9517 355.814 58.5401 338.607 62.8979C321.399 67.2557 310.984 84.7351 315.344 101.937C319.703 119.139 337.188 129.55 354.396 125.193C360.536 123.635 365.801 120.406 369.846 116.121L383.202 118.101L376.421 105.77Z" fill="white"/>
<path d="M378.849 111.039C381.222 104.997 381.801 98.1891 380.087 91.423C375.727 74.2212 358.242 63.8096 341.035 68.1674C323.827 72.5252 313.412 90.0046 317.771 107.206C322.131 124.408 339.616 134.82 356.823 130.462C362.964 128.905 368.229 125.676 372.274 121.39L385.629 123.37L378.849 111.039Z" fill="#3B3F51"/>
<path d="M376.421 105.77C378.794 99.7278 379.374 92.9195 377.659 86.1535C373.3 68.9517 355.814 58.5401 338.607 62.8979C321.399 67.2557 310.984 84.7351 315.344 101.937C319.703 119.139 337.188 129.55 354.396 125.193C360.536 123.635 365.801 120.406 369.846 116.121L383.202 118.101L376.421 105.77Z" stroke="white" stroke-width="2" stroke-miterlimit="10" stroke-linejoin="bevel"/>
<path fill-rule="evenodd" clip-rule="evenodd" d="M337.967 87.9337C337.967 81.8135 342.948 76.834 349.07 76.834C355.192 76.834 360.174 81.8135 360.174 87.9337C360.174 92.9433 356.811 97.1381 352.246 98.5143V102.202C352.246 103.959 350.827 105.371 349.076 105.371C347.325 105.371 345.906 103.952 345.906 102.202V95.8586C345.906 94.1022 347.325 92.6898 349.076 92.6898C351.697 92.6898 353.834 90.5532 353.834 87.9337C353.834 85.3142 351.697 83.1775 349.076 83.1775C346.456 83.1775 344.319 85.3142 344.319 87.9337C344.319 89.6901 342.9 91.1024 341.149 91.1024C339.398 91.1024 337.967 89.6901 337.967 87.9337Z" fill="white"/>
<path d="M349.07 114.882C350.821 114.882 352.24 113.464 352.24 111.714C352.24 109.964 350.821 108.545 349.07 108.545C347.32 108.545 345.9 109.964 345.9 111.714C345.9 113.464 347.32 114.882 349.07 114.882Z" fill="white"/>
</g>
<defs>
<clipPath id="clip0">
<rect width="856" height="366" fill="white" transform="translate(1)"/>
</clipPath>
</defs>
</svg>
